<svg width="28" height="28" viewBox="0 0 28 28" fill="none" xmlns="http://www.w3.org/2000/svg">
<g clip-path="url(#clip0_201_17)">
<path d="M3.76259 23.8541C2.52697 22.6183 1.55906 21.1902 0.858875 19.5698C0.158687 17.9495 -0.191406 16.2742 -0.191406 14.544C-0.191406 12.8138 0.138094 11.1042 0.797093 9.41522C1.45609 7.72622 2.52697 6.14021 4.00972 4.65719C4.97076 3.69597 6.15833 2.87206 7.57243 2.18548C8.98654 1.49889 10.6615 0.956491 12.5973 0.558272C14.5331 0.160053 16.7435 -0.0802522 19.2285 -0.162642C21.7135 -0.245033 24.4936 -0.148911 27.569 0.125723C27.7886 3.03684 27.8573 5.71453 27.7749 8.15877C27.6925 10.603 27.466 12.807 27.0953 14.7706C26.7246 16.7342 26.2029 18.4507 25.5302 19.92C24.8574 21.3893 24.0268 22.6183 23.0383 23.6069C21.583 25.0625 20.0385 26.1267 18.4047 26.7996C16.771 27.4724 15.1029 27.8088 13.4005 27.8088C11.6157 27.8088 9.87207 27.4587 8.16965 26.7584C6.46724 26.058 4.99822 25.09 3.76259 23.8541ZM8.37559 23.195C9.17188 23.6619 9.98877 23.9983 10.8262 24.2043C11.6637 24.4102 12.5218 24.5132 13.4005 24.5132C14.6635 24.5132 15.9129 24.2592 17.1485 23.7511C18.3841 23.243 19.5649 22.426 20.6906 21.3C21.1849 20.8057 21.686 20.1122 22.194 19.2197C22.702 18.3271 23.1413 17.1599 23.512 15.7181C23.8827 14.2762 24.1641 12.5323 24.3563 10.4863C24.5485 8.44027 24.576 6.00289 24.4387 3.17416C23.0933 3.11923 21.5762 3.09864 19.8875 3.11237C18.1988 3.1261 16.517 3.25655 14.842 3.50372C13.1671 3.75089 11.5745 4.14911 10.0643 4.69838C8.55407 5.24765 7.31845 6.00289 6.3574 6.96411C5.12178 8.19996 4.27057 9.42209 3.80378 10.6305C3.33699 11.8389 3.10359 13.0061 3.10359 14.1321C3.10359 15.7524 3.4125 17.1736 4.03031 18.3958C4.64812 19.6179 5.19043 20.4761 5.65722 20.9704C6.81047 18.7734 8.3344 16.6656 10.229 14.647C12.1237 12.6284 14.334 10.9738 16.8602 9.68299C14.8832 11.4132 13.1602 13.37 11.6912 15.5533C10.2222 17.7366 9.11697 20.2839 8.37559 23.195Z" fill="#525151"/>
</g>
<defs>
<clipPath id="clip0_201_17">
<rect width="28" height="28" fill="white"/>
</clipPath>
</defs>
</svg>
