<svg xmlns="http://www.w3.org/2000/svg" viewBox="0 0 48 48"><defs><style>.cls-1{fill:#412d19;}.cls-2{fill:#fff;}</style></defs><g id="Layer_2" data-name="Layer 2"><g id="Layer_2-2" data-name="Layer 2"><circle class="cls-1" cx="24" cy="24" r="24"/><path class="cls-2" d="M33.43,39a20.56,20.56,0,0,1-3.68,2.61c-3.74,2.09-8.17,2-12.29,1.46-2.14-.29-4.17-1.23-4.43-3.63A5.48,5.48,0,0,1,15,34.66c.92-.82,3.76-3,5-1.88.93.85-.19,1.73-.56,2.55-.68,1.51-1.24,2.94.41,4.27,1.83,1.47,3.85,1.23,5.68.39,3.27-1.52,3.94-4.78,1.95-8.27-2.26-4-6.09-6.52-9.09-9.82s-3.74-7.19-2-11.15c1.94-4.49,10.18-7.35,14-5.62,2.19,1,3.78,3.75,3,5.73-1.07,2.77-5,5.12-7.14,4.21-1.35-.57-.3-1.17.05-1.77.85-1.48,2.43-2.69,1.06-4.49a2.22,2.22,0,0,0-2.61-.73,5.66,5.66,0,0,0-3.39,4.29c-.67,4,3,7,5.39,9.55,3.19,3.36,6.7,6.48,8.19,11.41A6.06,6.06,0,0,1,33.43,39Z"/></g></g></svg>