<svg xmlns="http://www.w3.org/2000/svg" viewBox="0 0 46 46"><defs><style>.cls-1{fill:#fff;stroke:#636464;stroke-miterlimit:10;}.cls-2{fill:#231f20;}</style></defs><g id="Layer_2" data-name="Layer 2"><g id="Layer_2-2" data-name="Layer 2"><rect class="cls-1" x="0.5" y="0.5" width="45" height="45" rx="1.48"/><path class="cls-2" d="M24.69,18.41v.45c0,.21,0,.41,0,.58a2.56,2.56,0,0,0,.1.54,3.24,3.24,0,0,0,.21.53,5.44,5.44,0,0,0,.34.59c.2.29.42.58.65.88s.45.58.67.84l-1.27,1L24.75,23l-.5-.68-.3-.45a1,1,0,0,1-.15-.29h0a3.09,3.09,0,0,1-.5.67c-.15.18-.35.42-.61.7s-.53.55-.8.8h0c-.27-.25-.53-.53-.79-.8s-.47-.52-.62-.7a4.74,4.74,0,0,1-.33-.42,1.17,1.17,0,0,1-.15-.25h0a1.23,1.23,0,0,1-.14.29l-.3.45c-.27.38-.68.91-1.24,1.6l-1.29-1c.26-.31.51-.62.74-.92s.45-.6.65-.89a5.65,5.65,0,0,0,.35-.59,3.24,3.24,0,0,0,.21-.53,3.41,3.41,0,0,0,.1-.54c0-.17,0-.37,0-.58v-.45H17.62V16.82H26.1v1.59Zm-4.77,6.07H29V30h-9.1Zm1.95-3,.33-.38.3-.4a2.14,2.14,0,0,0,.34-.75A4.39,4.39,0,0,0,23,18.86v-.45H20.79v.45a4.45,4.45,0,0,0,.1,1.05,2.15,2.15,0,0,0,.35.75l.3.4Zm-.09,7h5.38V26.06H21.78ZM29,23.85H27.21V16H29Z"/></g></g></svg>