<svg xmlns="http://www.w3.org/2000/svg" viewBox="0 0 185.71 117.7"><defs><style>.cls-1{fill:#fff;}.cls-2{fill:#412d19;}</style></defs><g id="Layer_2" data-name="Layer 2"><g id="Layer_2-2" data-name="Layer 2"><path class="cls-1" d="M74.26,116.39a134,134,0,0,1-20.55-3.65C37.42,108.53,23,101,12,87.81c-14-16.69-14.26-39.12-.09-55.74C24.47,17.32,41.23,9.55,59.56,4.87c23.56-6,47.87-5.33,71.43,0C144.5,8,157.14,13.09,167.68,22.48c20.53,18.27,22.28,45.75,4.26,65.39a71.27,71.27,0,0,1-22.74,16.74,123,123,0,0,1-20.49,7.29,156.23,156.23,0,0,1-54.42,4.49Z"/><path class="cls-2" d="M88,117.7a148.29,148.29,0,0,1-19.88-1.33c-15.55-2.11-30.52-6.4-43.59-15.54C12.87,92.72,3.34,80.51.68,66.37c-2.84-15.09,3.5-29.56,14.46-39.85C40.63,2.61,78.05-2.56,111.53,1c4.22.45,8.44,1.05,12.62,1.77l.1,0A106.12,106.12,0,0,1,153.68,12c12.17,6,22.09,14.57,27.83,27.18,7.49,16.44,4.92,34-7.36,47.69-10.71,11.95-24,19.24-39.25,23.82A163.29,163.29,0,0,1,88,117.7Zm-.76-3c2.08,0,4.14-.07,6.16-.15,14.6-.59,29.57-2.68,43.54-7.5,14.77-5.09,26.91-12.76,36.68-25,9.54-12,11.26-25.18,6.42-39.28-3.78-11-12.29-18.42-21.51-24.8-9.68-6.71-20.79-10-32.33-12.08A167.17,167.17,0,0,0,61,7.11,98.82,98.82,0,0,0,29.51,19.92C17.24,27.48,7.43,37.22,4,51.88c-3.63,15.45,3.68,27.94,13.61,39C34.75,109.92,62.35,114.93,87.19,114.75Z"/><path class="cls-2" d="M79.32,111A94.69,94.69,0,0,1,57,108.6C42,105,28.62,98.44,19,85.87c-3.2-4.17-4.69-9-5.77-14.18-2.11-10.25.59-19.22,5.93-27.7,6.57-10.47,18-17.92,28.76-23.5,12.31-6.38,25.49-9.9,39.17-11.73a146.66,146.66,0,0,1,24.74-1.62c14.49.5,28.43,3.13,41,11C162.11,24,168.61,32,171.7,42.52c4.33,14.73-1,27-10.77,37.68-9.24,10.12-20.83,16.72-33.61,21.53C112.67,107.24,95.76,111,79.32,111Zm-.1-2.14a134.12,134.12,0,0,0,47.07-8.67c12.2-4.52,23.47-10.73,32.25-20.44,8.59-9.49,14.69-20,12.09-33.85C164.5,13.41,124.25,6.76,97,9.44a176.75,176.75,0,0,0-19.12,3,113.12,113.12,0,0,0-29.68,10.4C36.42,29.09,25.69,36.71,19.33,48.93,6.2,74.14,26,96.75,49.7,104.36A98.87,98.87,0,0,0,79.22,108.89Z"/><path class="cls-2" d="M130.81,66.92a19.7,19.7,0,0,1-7.89,10.32c-2.24,1.56-5,2.67-7.74,2.06a12,12,0,0,1-6.55-4.64,43.22,43.22,0,0,1-5.2-9c-1,6-3.29,10.74-9,12.31C89.06,79.45,84.16,80,79.29,76.72a.69.69,0,0,0-.54-.17.66.66,0,0,0-.32.23c-1.24,1.35-3.24,3.17-5.27,2.77s-2.86-2.77-3.26-4.43a64.64,64.64,0,0,1-1.76-11.81c-.07-.69,0-1.75-.5-2.31s-1.93-.38-2.83-.46a7.27,7.27,0,0,0-1.92.06c-1,.17-1.54,1.11-1.8,2-.83,3.12-1.4,6.33-2.54,9.36-.7,1.87-3.21,7.75-5.91,6.79-1.26-.44-.83-1.85-1-2.89-.08-.57.33-1.18-.29-1.92a46.31,46.31,0,0,1-4.17,3C43,79.31,38,79.22,33.31,78.6c-2.43-.33-4.73-1.39-5-4.12a6.21,6.21,0,0,1,2.17-5.38c1-.93,4.27-3.37,5.62-2.14,1.06,1-.22,2-.64,2.89-.77,1.71-1.4,3.34.47,4.84,2.08,1.66,4.37,1.39,6.43.44,3.71-1.72,4.46-5.42,2.22-9.37-2.57-4.5-6.9-7.38-10.3-11.11C30.7,50.75,30,46.5,32,42c2.2-5.08,11.52-8.32,15.84-6.36,2.49,1.13,4.29,4.25,3.42,6.48-1.22,3.15-5.68,5.81-8.1,4.78-1.52-.65-.33-1.33.06-2,1-1.68,2.75-3.06,1.21-5.09a2.52,2.52,0,0,0-3-.83,6.37,6.37,0,0,0-3.84,4.86c-.76,4.48,3.36,7.92,6.1,10.82C47.31,58.47,51.3,62,53,67.58c1.63-1.8,1.47-3.86,2-5.66.19-.67-.37-1.06-1-1.12a10.47,10.47,0,0,0-1.12,0,.94.94,0,0,1-.59-.18c-1-.91.93-3.77,2.1-3.74,2.71.06,3-1.8,3.55-3.59,1.62-5.17,3.28-10.33,4.82-15.52a3.63,3.63,0,0,1,3.92-2.94c2.4,0,2.22,2,2.55,3.36,1.09,4.65,2.15,9.33,3,14A9.59,9.59,0,0,0,73,55a1.29,1.29,0,0,0,1.35.86c.76-.17,2.35-.92,2.68.18a2.68,2.68,0,0,1-.31,1.71c-.18.3-.38,1-.7,1.18-.8.44-1.73.42-1.83,1.12-.28,1.91.33,4.09.77,6.14l1.2,5.55c.34,1.54,1,1.06,2,.26s.9-2.13.9-3.29c0-9.21,0-18.41,0-27.62a9,9,0,0,1,.36-3.69c.56-1.17,2-1.42,3.18-1.7,4.18-1,10.06-.67,13.34,2.48,3.07,3,2.72,7.58.57,11-.55.88-1.32,2.07-1,3.16S97.1,53.85,98,54.39c1.64,1,2.37,2.61,3.72,3.78a27.2,27.2,0,0,0,.43-4.55c.16-1.37.36-2.73.6-4.09a19.13,19.13,0,0,1,5.73-10.38,15.25,15.25,0,0,1,5.1-3.47c2.16-.71,4.71.14,6.54,1.3a19.41,19.41,0,0,1,9,11.81,7.61,7.61,0,0,0,1.66,3.08c0-4.07,0-8.14,0-12.21,0-1.91,0-3.72,2.5-3.9,2.27-.17,4.29-.54,5.32,2.64,2.24,6.93,5,13.7,7.56,20.53.12.34.51.58.72.8.66,0,.73-.41.72-.81-.2-7,.24-14-.46-21-.08-.86-.25-1.74.76-2,1.45-.32,3-.64,4.33.42a4.1,4.1,0,0,1,1.56,3.39c0,12.3.07,24.61.11,36.92,0,1-.06,1.93-1.47,2.14-2,.29-3.71,0-4.68-1.75a58.63,58.63,0,0,1-3.09-6.74c-2.06-5.19-4-10.42-6.29-16.32,0,5.41-.25,10.05.1,14.64a29.69,29.69,0,0,1-.37,7.72c-.49,2.65-2.88,2.63-5.12,2.54a2.56,2.56,0,0,1-1.47-.36,2,2,0,0,1-.7-1.52c-.1-1.64.06-3.33.06-5S130.39,68.35,130.81,66.92ZM123,56.68c0-4-3-19.76-9.51-13.85-2.16,2-2.57,4.6-3,7.24-1.12,7.09-.45,14.6,3,21,.7,1.32,1.87,2.63,3.48,2.57,2.14-.08,2.93-2.22,3.67-3.92a26.39,26.39,0,0,0,1.8-6.34A43,43,0,0,0,123,56.68ZM95.92,65.16c.23-4.44-2-7-5.47-8.77-2.85-1.43-5.4-.83-5.7,2.65a62,62,0,0,0,.08,9.24c.1,1.53.16,3.08.33,4.6.14,1.27.72,1.58,2,1.64C92,74.75,95.9,70.5,95.92,65.16ZM84,45.62c0,1.23,0,2.46.1,3.69a3.86,3.86,0,0,0,.17,1.13c.53,1.43,2,.77,3,.25,2.52-1.4,3.74-5.42,2.22-7.8-1-1.53-2.47-3-4.32-2.64-1.52.34-1.15,1.87-1.15,3C84,44.07,84,44.84,84,45.62ZM65.3,48.38c-.08,0-.13.1-.25.29a6.76,6.76,0,0,0-.79,2.26L63.56,54c-.16.68-.42,1.76-.25,1.91.12.32,1.89.32,1.89.32a3.87,3.87,0,0,0,1.73-.32c.27-.17,0-1.81-.08-2.34a30,30,0,0,0-1-3.76,4.77,4.77,0,0,0-.45-1.3C65.38,48.43,65.34,48.39,65.3,48.38Z"/></g></g></svg>