<svg xmlns="http://www.w3.org/2000/svg" xmlns:xlink="http://www.w3.org/1999/xlink" viewBox="0 0 185 45"><defs><style>.cls-1{fill:none;}.cls-2{fill:#57ba53;}.cls-3{clip-path:url(#clip-path);}.cls-4{fill:#231f20;}</style><clipPath id="clip-path"><rect id="SVGID" class="cls-1" x="55.25" y="15.14" width="47.59" height="14.73"/></clipPath></defs><g id="Layer_2" data-name="Layer 2"><g id="Layer_2-2" data-name="Layer 2"><rect class="cls-2" width="185" height="45" rx="3.01"/><g class="cls-3"><path class="cls-4" d="M101.87,18.06,97.14,28.71h-2.2l1.52-3.38-3.64-7.27h2.26l2.42,5,2.19-5ZM91.75,26.24h-2.1v-.59a3.79,3.79,0,0,1-2.35.77,4.15,4.15,0,0,1-4.13-4.27,4.16,4.16,0,0,1,4.13-4.27,3.85,3.85,0,0,1,2.35.77v-.59h2.1Zm-4.16-6.59a2.36,2.36,0,0,0-2.32,2.5,2.33,2.33,0,1,0,4.64,0A2.37,2.37,0,0,0,87.59,19.65ZM73.44,18.06h2.1v.59a3.86,3.86,0,0,1,2.36-.77A4.16,4.16,0,0,1,82,22.15a4.15,4.15,0,0,1-4.12,4.27,3.78,3.78,0,0,1-2.28-.71v3H73.44Zm1.85,4.09a2.33,2.33,0,1,0,4.64,0,2.33,2.33,0,1,0-4.64,0Z"/><path class="cls-4" d="M70,22.5a7.37,7.37,0,0,1-14.59,1.44,7.48,7.48,0,0,1,.42-4.26A7.36,7.36,0,0,1,70,22.5Zm-5.82-3.79V23l-3-4.28H58.82v7.58h2.26V22l3,4.28h2.32V18.71Z"/></g><path class="cls-4" d="M113.34,22.57a15.06,15.06,0,0,0,.32-2c0-.63.08-1.3.08-2V18h-7.48V16.33h9.37v1.91c0,.78,0,1.55-.1,2.3a15,15,0,0,1-.29,2h2.22v1.61H112v5.3h-1.91v-5.3h-5.43V22.57Z"/><path class="cls-4" d="M123.72,16.85v8.92H118V16.85Zm-1.8,1.59H119.8v5.74h2.12Zm7.83,11H128V22h-1.23V28.8h-1.8v-13h1.8v4.53H128V15.52h1.8Z"/></g></g></svg>