<svg xmlns="http://www.w3.org/2000/svg" viewBox="0 0 120 120"><defs><style>.cls-1,.cls-2{fill:none;}.cls-2{stroke:#54301b;stroke-miterlimit:10;stroke-width:4px;}.cls-3{fill:#54301b;}</style></defs><g id="Layer_2" data-name="Layer 2"><g id="overlay"><rect class="cls-1" width="120" height="120"/><g id="cartIcon"><polygon class="cls-2" points="101.85 28.56 18.25 28.56 13.56 117.5 106.44 117.5 101.85 28.56"/><path class="cls-2" d="M40.52,46.36V23.78C40.52,12.08,49.27,2.5,60,2.5h0c10.69,0,19.45,9.58,19.45,21.28V46.36"/><path class="cls-3" d="M45,46.36a4.51,4.51,0,1,1-4.51-4.51A4.51,4.51,0,0,1,45,46.36Z"/><path class="cls-3" d="M74.9,46.36a4.52,4.52,0,1,0,4.52-4.51A4.51,4.51,0,0,0,74.9,46.36Z"/></g></g></g></svg>